# xmcd CD database file
#
# Track frame offsets:
#	150
#	40775
#	192122
#
# Disc length: 3476 seconds
#
# Revision: 0
# Processed by: cddbd v1.5.2PL0 Copyright (c) Steve Scherf et al.
# Submitted via: CDex 1.70beta2
#
DISCID=1c0d9203
DTITLE=Pawel Postaremczak - Affinity
DYEAR=2011
DGENRE=Jazz
TTITLE0=Transcend the Nearness
TTITLE1=Too Close to be Close
TTITLE2=Amalgamation
EXTD=YEAR: 2011
EXTT0=
EXTT1=
EXTT2=
PLAYORDER=
